<?xml version="1.0" encoding="utf-8"?>
<!-- Generator: Adobe Illustrator 21.1.0, SVG Export Plug-In . SVG Version: 6.00 Build 0)  -->
<svg version="1.1" id="Layer_1" xmlns="http://www.w3.org/2000/svg" xmlns:xlink="http://www.w3.org/1999/xlink" x="0px" y="0px"
	 viewBox="0 0 1728 468" style="enable-background:new 0 0 1728 468;" xml:space="preserve">
<style type="text/css">
	.st0{fill:none;stroke:#FF0000;stroke-width:0.9;}
	.st1{fill:none;stroke:#FF0000;stroke-width:0.9;stroke-miterlimit:10;}
	.st2{fill:#FFFFFF;stroke:#FF0000;stroke-miterlimit:10;}
	.st3{fill:#0000FF;}
	.st4{font-family:'Gastromond-Regular';}
	.st5{font-size:30px;}
</style>
<g transform="translate(22.5, 22.5) ">
	<polygon class="st0" points="-4.5,-4.5 31.5,-4.5 31.5,12.5 67.5,12.5 67.5,-4.5 89.1,-4.5 89.1,12.5 110.7,12.5 110.7,-4.5 
		132.3,-4.5 132.3,12.5 153.9,12.5 153.9,-4.5 175.5,-4.5 175.5,12.5 197.1,12.5 197.1,-4.5 218.7,-4.5 218.7,12.5 240.3,12.5 
		240.3,-4.5 261.9,-4.5 261.9,12.5 283.5,12.5 283.5,-4.5 305.1,-4.5 305.1,12.5 326.7,12.5 326.7,-4.5 348.3,-4.5 348.3,12.5 
		369.9,12.5 369.9,-4.5 391.5,-4.5 391.5,12.5 413.1,12.5 413.1,-4.5 434.7,-4.5 434.7,12.5 456.3,12.5 456.3,-4.5 477.9,-4.5 
		477.9,12.5 499.5,12.5 499.5,-4.5 521.1,-4.5 521.1,12.5 542.7,12.5 542.7,-4.5 564.3,-4.5 564.3,12.5 585.9,12.5 585.9,-4.5 
		607.5,-4.5 607.5,12.5 643.5,12.5 643.5,-4.5 679.5,-4.5 679.5,17.1 662.5,17.1 662.5,38.7 679.5,38.7 679.5,60.3 662.5,60.3 
		662.5,81.9 679.5,81.9 679.5,103.5 643.5,103.5 643.5,86.5 607.5,86.5 607.5,103.5 585.9,103.5 585.9,86.5 564.3,86.5 564.3,103.5 
		542.7,103.5 542.7,86.5 521.1,86.5 521.1,103.5 499.5,103.5 499.5,86.5 477.9,86.5 477.9,103.5 456.3,103.5 456.3,86.5 434.7,86.5 
		434.7,103.5 413.1,103.5 413.1,86.5 391.5,86.5 391.5,103.5 369.9,103.5 369.9,86.5 348.3,86.5 348.3,103.5 326.7,103.5 
		326.7,86.5 305.1,86.5 305.1,103.5 283.5,103.5 283.5,86.5 261.9,86.5 261.9,103.5 240.3,103.5 240.3,86.5 218.7,86.5 218.7,103.5 
		197.1,103.5 197.1,86.5 175.5,86.5 175.5,103.5 153.9,103.5 153.9,86.5 132.3,86.5 132.3,103.5 110.7,103.5 110.7,86.5 89.1,86.5 
		89.1,103.5 67.5,103.5 67.5,86.5 31.5,86.5 31.5,103.5 -4.5,103.5 -4.5,81.9 12.5,81.9 12.5,60.3 -4.5,60.3 -4.5,38.7 12.5,38.7 
		12.5,17.1 -4.5,17.1 	"/>
</g>
<g transform="translate(877.5, 22.5) ">
	<polygon class="st0" points="-175.5,-4.5 -139.5,-4.5 -139.5,12.5 -103.5,12.5 -103.5,-4.5 -81.9,-4.5 -81.9,12.5 -60.3,12.5 
		-60.3,-4.5 -38.7,-4.5 -38.7,12.5 -17.1,12.5 -17.1,-4.5 4.5,-4.5 4.5,12.5 26.1,12.5 26.1,-4.5 47.7,-4.5 47.7,12.5 69.3,12.5 
		69.3,-4.5 90.9,-4.5 90.9,12.5 112.5,12.5 112.5,-4.5 134.1,-4.5 134.1,12.5 155.7,12.5 155.7,-4.5 177.3,-4.5 177.3,12.5 
		198.9,12.5 198.9,-4.5 220.5,-4.5 220.5,12.5 242.1,12.5 242.1,-4.5 263.7,-4.5 263.7,12.5 285.3,12.5 285.3,-4.5 306.9,-4.5 
		306.9,12.5 328.5,12.5 328.5,-4.5 350.1,-4.5 350.1,12.5 371.7,12.5 371.7,-4.5 393.3,-4.5 393.3,12.5 414.9,12.5 414.9,-4.5 
		436.5,-4.5 436.5,12.5 472.5,12.5 472.5,-4.5 508.5,-4.5 508.5,17.1 491.5,17.1 491.5,38.7 508.5,38.7 508.5,60.3 491.5,60.3 
		491.5,81.9 508.5,81.9 508.5,103.5 472.5,103.5 472.5,86.5 436.5,86.5 436.5,103.5 414.9,103.5 414.9,86.5 393.3,86.5 393.3,103.5 
		371.7,103.5 371.7,86.5 350.1,86.5 350.1,103.5 328.5,103.5 328.5,86.5 306.9,86.5 306.9,103.5 285.3,103.5 285.3,86.5 263.7,86.5 
		263.7,103.5 242.1,103.5 242.1,86.5 220.5,86.5 220.5,103.5 198.9,103.5 198.9,86.5 177.3,86.5 177.3,103.5 155.7,103.5 
		155.7,86.5 134.1,86.5 134.1,103.5 112.5,103.5 112.5,86.5 90.9,86.5 90.9,103.5 69.3,103.5 69.3,86.5 47.7,86.5 47.7,103.5 
		26.1,103.5 26.1,86.5 4.5,86.5 4.5,103.5 -17.1,103.5 -17.1,86.5 -38.7,86.5 -38.7,103.5 -60.3,103.5 -60.3,86.5 -81.9,86.5 
		-81.9,103.5 -103.5,103.5 -103.5,86.5 -139.5,86.5 -139.5,103.5 -175.5,103.5 -175.5,81.9 -158.5,81.9 -158.5,60.3 -175.5,60.3 
		-175.5,38.7 -158.5,38.7 -158.5,17.1 -175.5,17.1 	"/>
</g>
<g transform="translate(1732.5, 22.5) ">
	<polygon class="st0" points="-329.5,-4.5 -314.1,-4.5 -314.1,12.5 -281.7,12.5 -281.7,-4.5 -260.1,-4.5 -260.1,12.5 -238.5,12.5 
		-238.5,-4.5 -216.9,-4.5 -216.9,12.5 -195.3,12.5 -195.3,-4.5 -173.7,-4.5 -173.7,12.5 -152.1,12.5 -152.1,-4.5 -130.5,-4.5 
		-130.5,12.5 -108.9,12.5 -108.9,-4.5 -87.3,-4.5 -87.3,12.5 -54.9,12.5 -54.9,-4.5 -39.5,-4.5 -39.5,17.1 -22.5,17.1 -22.5,38.7 
		-39.5,38.7 -39.5,60.3 -22.5,60.3 -22.5,81.9 -39.5,81.9 -39.5,103.5 -54.9,103.5 -54.9,86.5 -87.3,86.5 -87.3,103.5 -108.9,103.5 
		-108.9,86.5 -130.5,86.5 -130.5,103.5 -152.1,103.5 -152.1,86.5 -173.7,86.5 -173.7,103.5 -195.3,103.5 -195.3,86.5 -216.9,86.5 
		-216.9,103.5 -238.5,103.5 -238.5,86.5 -260.1,86.5 -260.1,103.5 -281.7,103.5 -281.7,86.5 -314.1,86.5 -314.1,103.5 -329.5,103.5 
		-329.5,81.9 -346.5,81.9 -346.5,60.3 -329.5,60.3 -329.5,38.7 -346.5,38.7 -346.5,17.1 -329.5,17.1 	"/>
</g>
<g transform="translate(1732.5, 157.5) ">
	<polygon class="st0" points="-329.5,-31.5 -314.1,-31.5 -314.1,-14.5 -281.7,-14.5 -281.7,-31.5 -260.1,-31.5 -260.1,-14.5 
		-238.5,-14.5 -238.5,-31.5 -216.9,-31.5 -216.9,-14.5 -195.3,-14.5 -195.3,-31.5 -173.7,-31.5 -173.7,-14.5 -152.1,-14.5 
		-152.1,-31.5 -130.5,-31.5 -130.5,-14.5 -108.9,-14.5 -108.9,-31.5 -87.3,-31.5 -87.3,-14.5 -54.9,-14.5 -54.9,-31.5 -39.5,-31.5 
		-39.5,-9.9 -22.5,-9.9 -22.5,11.7 -39.5,11.7 -39.5,33.3 -22.5,33.3 -22.5,54.9 -39.5,54.9 -39.5,76.5 -54.9,76.5 -54.9,59.5 
		-87.3,59.5 -87.3,76.5 -108.9,76.5 -108.9,59.5 -130.5,59.5 -130.5,76.5 -152.1,76.5 -152.1,59.5 -173.7,59.5 -173.7,76.5 
		-195.3,76.5 -195.3,59.5 -216.9,59.5 -216.9,76.5 -238.5,76.5 -238.5,59.5 -260.1,59.5 -260.1,76.5 -281.7,76.5 -281.7,59.5 
		-314.1,59.5 -314.1,76.5 -329.5,76.5 -329.5,54.9 -346.5,54.9 -346.5,33.3 -329.5,33.3 -329.5,11.7 -346.5,11.7 -346.5,-9.9 
		-329.5,-9.9 	"/>
</g>
<g transform="translate(22.5, 157.5) ">
	<polygon class="st0" points="12.5,-14.5 31.5,-14.5 31.5,-31.5 67.5,-31.5 67.5,-14.5 89.1,-14.5 89.1,-31.5 110.7,-31.5 
		110.7,-14.5 132.3,-14.5 132.3,-31.5 153.9,-31.5 153.9,-14.5 175.5,-14.5 175.5,-31.5 197.1,-31.5 197.1,-14.5 218.7,-14.5 
		218.7,-31.5 240.3,-31.5 240.3,-14.5 261.9,-14.5 261.9,-31.5 283.5,-31.5 283.5,-14.5 305.1,-14.5 305.1,-31.5 326.7,-31.5 
		326.7,-14.5 348.3,-14.5 348.3,-31.5 369.9,-31.5 369.9,-14.5 391.5,-14.5 391.5,-31.5 413.1,-31.5 413.1,-14.5 434.7,-14.5 
		434.7,-31.5 456.3,-31.5 456.3,-14.5 477.9,-14.5 477.9,-31.5 499.5,-31.5 499.5,-14.5 521.1,-14.5 521.1,-31.5 542.7,-31.5 
		542.7,-14.5 564.3,-14.5 564.3,-31.5 585.9,-31.5 585.9,-14.5 607.5,-14.5 607.5,-31.5 643.5,-31.5 643.5,-14.5 662.5,-14.5 
		662.5,0.9 679.5,0.9 679.5,33.3 662.5,33.3 662.5,54.9 679.5,54.9 679.5,76.5 662.5,76.5 662.5,98.1 679.5,98.1 679.5,119.7 
		662.5,119.7 662.5,141.3 679.5,141.3 679.5,162.9 662.5,162.9 662.5,184.5 679.5,184.5 679.5,206.1 662.5,206.1 662.5,227.7 
		679.5,227.7 679.5,260.1 662.5,260.1 662.5,275.5 643.5,275.5 643.5,292.5 607.5,292.5 607.5,275.5 585.9,275.5 585.9,292.5 
		564.3,292.5 564.3,275.5 542.7,275.5 542.7,292.5 521.1,292.5 521.1,275.5 499.5,275.5 499.5,292.5 477.9,292.5 477.9,275.5 
		456.3,275.5 456.3,292.5 434.7,292.5 434.7,275.5 413.1,275.5 413.1,292.5 391.5,292.5 391.5,275.5 369.9,275.5 369.9,292.5 
		348.3,292.5 348.3,275.5 326.7,275.5 326.7,292.5 305.1,292.5 305.1,275.5 283.5,275.5 283.5,292.5 261.9,292.5 261.9,275.5 
		240.3,275.5 240.3,292.5 218.7,292.5 218.7,275.5 197.1,275.5 197.1,292.5 175.5,292.5 175.5,275.5 153.9,275.5 153.9,292.5 
		132.3,292.5 132.3,275.5 110.7,275.5 110.7,292.5 89.1,292.5 89.1,275.5 67.5,275.5 67.5,292.5 31.5,292.5 31.5,275.5 12.5,275.5 
		12.5,260.1 -4.5,260.1 -4.5,227.7 12.5,227.7 12.5,206.1 -4.5,206.1 -4.5,184.5 12.5,184.5 12.5,162.9 -4.5,162.9 -4.5,141.3 
		12.5,141.3 12.5,119.7 -4.5,119.7 -4.5,98.1 12.5,98.1 12.5,76.5 -4.5,76.5 -4.5,54.9 12.5,54.9 12.5,33.3 -4.5,33.3 -4.5,0.9 
		12.5,0.9 	"/>
</g>
<g transform="translate(877.5, 157.5) ">
	<polygon class="st0" points="-158.5,-14.5 -139.5,-14.5 -139.5,-31.5 -103.5,-31.5 -103.5,-14.5 -81.9,-14.5 -81.9,-31.5 
		-60.3,-31.5 -60.3,-14.5 -38.7,-14.5 -38.7,-31.5 -17.1,-31.5 -17.1,-14.5 4.5,-14.5 4.5,-31.5 26.1,-31.5 26.1,-14.5 47.7,-14.5 
		47.7,-31.5 69.3,-31.5 69.3,-14.5 90.9,-14.5 90.9,-31.5 112.5,-31.5 112.5,-14.5 134.1,-14.5 134.1,-31.5 155.7,-31.5 
		155.7,-14.5 177.3,-14.5 177.3,-31.5 198.9,-31.5 198.9,-14.5 220.5,-14.5 220.5,-31.5 242.1,-31.5 242.1,-14.5 263.7,-14.5 
		263.7,-31.5 285.3,-31.5 285.3,-14.5 306.9,-14.5 306.9,-31.5 328.5,-31.5 328.5,-14.5 350.1,-14.5 350.1,-31.5 371.7,-31.5 
		371.7,-14.5 393.3,-14.5 393.3,-31.5 414.9,-31.5 414.9,-14.5 436.5,-14.5 436.5,-31.5 472.5,-31.5 472.5,-14.5 491.5,-14.5 
		491.5,0.9 508.5,0.9 508.5,33.3 491.5,33.3 491.5,54.9 508.5,54.9 508.5,76.5 491.5,76.5 491.5,98.1 508.5,98.1 508.5,119.7 
		491.5,119.7 491.5,141.3 508.5,141.3 508.5,162.9 491.5,162.9 491.5,184.5 508.5,184.5 508.5,206.1 491.5,206.1 491.5,227.7 
		508.5,227.7 508.5,260.1 491.5,260.1 491.5,275.5 472.5,275.5 472.5,292.5 436.5,292.5 436.5,275.5 414.9,275.5 414.9,292.5 
		393.3,292.5 393.3,275.5 371.7,275.5 371.7,292.5 350.1,292.5 350.1,275.5 328.5,275.5 328.5,292.5 306.9,292.5 306.9,275.5 
		285.3,275.5 285.3,292.5 263.7,292.5 263.7,275.5 242.1,275.5 242.1,292.5 220.5,292.5 220.5,275.5 198.9,275.5 198.9,292.5 
		177.3,292.5 177.3,275.5 155.7,275.5 155.7,292.5 134.1,292.5 134.1,275.5 112.5,275.5 112.5,292.5 90.9,292.5 90.9,275.5 
		69.3,275.5 69.3,292.5 47.7,292.5 47.7,275.5 26.1,275.5 26.1,292.5 4.5,292.5 4.5,275.5 -17.1,275.5 -17.1,292.5 -38.7,292.5 
		-38.7,275.5 -60.3,275.5 -60.3,292.5 -81.9,292.5 -81.9,275.5 -103.5,275.5 -103.5,292.5 -139.5,292.5 -139.5,275.5 -158.5,275.5 
		-158.5,260.1 -175.5,260.1 -175.5,227.7 -158.5,227.7 -158.5,206.1 -175.5,206.1 -175.5,184.5 -158.5,184.5 -158.5,162.9 
		-175.5,162.9 -175.5,141.3 -158.5,141.3 -158.5,119.7 -175.5,119.7 -175.5,98.1 -158.5,98.1 -158.5,76.5 -175.5,76.5 -175.5,54.9 
		-158.5,54.9 -158.5,33.3 -175.5,33.3 -175.5,0.9 -158.5,0.9 	"/>
</g>
<circle class="st1" cx="190.3" cy="330.8" r="11.3"/>
<circle class="st1" cx="529.8" cy="330.8" r="11.3"/>
<circle class="st2" cx="1296.4" cy="72" r="14.4"/>
<text transform="matrix(1 0 0 1 1608 191)" class="st3 st4 st5">SJT</text>
</svg>
